<!-- icon666.com - MILLIONS vector ICONS FREE --><svg viewBox="0 -6 512 511" xmlns="http://www.w3.org/2000/svg">
<path d="m501 255.171875c0 135.308594-109.691406 245-245 245s-245-109.691406-245-245c0-135.3125 109.691406-245 245-245s245 109.6875 245 245zm0 0" 
fill="#ff9518"></path><path d="m129.589844 465.058594c36.90625 22.28125 80.15625 35.113281 126.410156 35.113281s89.503906-12.832031 126.410156-35.113281zm0 0" 
fill="#c67c4a"></path><path d="m507 429.582031h-344.5v15.140625c0 .707032-.140625 1.277344-.398438 1.648438-.21875.308594-.515624.464844-.886718.464844-.464844 0-1.019532-.238282-1.605469-.6875l-18.261719-14.015626c-1.066406-.824218-2.488281-1.277343-4-1.277343-1.511718 0-2.933594.453125-4.003906 1.277343l-18.257812 14.015626c-.585938.449218-1.140626.6875-1.605469.6875-1.191407 0-1.285157-1.621094-1.285157-2.117188v-15.136719h-107.195312c-2.75 0-5 2.25-5 5v25.476563c0 2.75 2.25 5 5 5h502c2.75 0 5-2.25 5-5v-25.476563c0-2.75-2.25-5-5-5zm0 0" 
fill="#994334"></path><path d="m30 460.058594v-25.476563c0-2.75 2.25-5 5-5h-30c-2.75 0-5 2.25-5 5v25.476563c0 2.75 2.25 5 5 5h30c-2.75 0-5-2.25-5-5zm0 0" 
fill="#87352a"></path><path d="m125.546875 352.640625c-17.21875 0-31.226563 14.003906-31.226563 31.21875 0 12.441406 7.320313 23.203125 17.875 28.21875v-25.707031h50.304688v28.710937h266.957031v-62.441406zm0 0" 
fill="#fff"></path><path d="m112.195312 386.371094h5.890626c-.054688-.828125-.085938-1.667969-.085938-2.511719 0-12.898437 6.398438-24.300781 16.1875-31.21875h-8.640625c-17.21875 0-31.226563 14.003906-31.226563 31.21875 0 12.441406 7.320313 23.203125 17.875 28.21875zm0 0" 
fill="#eef6ff"></path><path d="m112.195312 411.527344c-10.273437-4.976563-17.375-15.507813-17.375-27.667969 0-16.9375 13.785157-30.71875 30.726563-30.71875h308.570313c4.144531 0 7.5-3.359375 7.5-7.5 0-4.144531-3.355469-7.5-7.5-7.5h-308.570313c-25.214844 0-45.726563 20.507813-45.726563 45.71875 0 20.570313 13.65625 38.003906 32.375 43.730469zm0 0" 
fill="#ea2a3d"></path><path d="m434.117188 414.582031h-271.617188v15h271.617188c4.144531 0 7.5-3.355469 7.5-7.5 0-4.140625-3.355469-7.5-7.5-7.5zm0 0" 
fill="#ea2a3d"></path><path d="m125.546875 323.640625h303.910156v-62.445313h-303.910156c-17.21875 0-31.226563 14.003907-31.226563 31.222657 0 17.214843 14.007813 31.222656 31.226563 31.222656zm0 0" 
fill="#fff"></path><path d="m125.546875 323.640625h8.640625c-9.789062-6.921875-16.1875-18.324219-16.1875-31.226563 0-12.898437 6.398438-24.296874 16.1875-31.21875h-8.640625c-17.21875 0-31.226563 14.003907-31.226563 31.21875 0 17.21875 14.007813 31.226563 31.226563 31.226563zm0 0" 
fill="#eef6ff"></path><path d="m434.117188 338.140625h-308.570313c-25.214844 0-45.726563-20.511719-45.726563-45.726563 0-25.210937 20.511719-45.71875 45.726563-45.71875h308.570313c4.144531 0 7.5 3.355469 7.5 7.5 0 4.140626-3.355469 7.5-7.5 7.5h-308.570313c-16.941406 0-30.726563 13.78125-30.726563 30.71875 0 16.941407 13.785157 30.726563 30.726563 30.726563h308.570313c4.144531 0 7.5 3.355469 7.5 7.5 0 4.140625-3.355469 7.5-7.5 7.5zm0 0" 
fill="#0f9390"></path><path d="m427.371094 242.03125c0 2.566406-2.097656 4.664062-4.660156 4.664062h-349.050782c-2.5625 0-4.660156-2.097656-4.660156-4.664062v-68.050781c0-2.5625 2.097656-4.660157 4.660156-4.660157h349.050782c2.5625 0 4.660156 2.09375 4.660156 4.660157zm0 0" 
fill="#293d7c"></path><path d="m84.628906 242.03125v-68.050781c0-2.5625 2.097656-4.660157 4.65625-4.660157h-15.625c-2.5625 0-4.660156 2.09375-4.660156 4.660157v68.050781c0 2.566406 2.097656 4.664062 4.660156 4.664062h15.625c-2.558594 0-4.65625-2.097656-4.65625-4.664062zm0 0" 
fill="#1a2b63"></path><g fill="#445ea0"><path d="m285.40625 169.320312h95.222656v77.375h-95.222656zm0 0" 
fill="#445ea0"></path><path d="m141.109375 210.929688c0 2.75-2.25 5-5 5h-29.285156c-2.75 0-5-2.25-5-5v-5.238282c0-2.75 2.25-5 5-5h29.285156c2.75 0 5 2.25 5 5zm0 0" 
fill="#445ea0"></path><path d="m266.898438 210.929688c0 2.75-2.25 5-5 5h-102.933594c-2.75 0-5-2.25-5-5v-5.238282c0-2.75 2.25-5 5-5h102.933594c2.75 0 5 2.25 5 5zm0 0" fill="#445ea0"></path></g><path d="m111.695312 385.871094v58.847656c0 2.5625 1.664063 3.386719 3.695313 1.824219l18.257813-14.015625c2.035156-1.5625 5.363281-1.5625 7.394531 0l18.261719 14.015625c2.03125 1.5625 3.695312.738281 3.695312-1.824219v-58.847656zm0 0" fill="#2da1dc"></path><path d="m127 385.871094h-15.304688v58.847656c0 2.5625 1.664063 3.386719 3.695313 1.824219l11.609375-8.910157zm0 0" fill="#1e8bc2"></path><path d="m459.679688 164.65625v-45.675781c-6.367188-9.503907-13.390626-18.535157-20.988282-27.035157h-332.722656c-2.566406 0-4.660156 2.097657-4.660156 4.660157v68.050781c0 2.566406 2.097656 4.664062 4.660156 4.664062h349.050781c2.5625 0 4.660157-2.097656 4.660157-4.664062zm0 0" fill="#fe3745" style="fill: rgb(248, 48, 62);"></path><path d="m116.628906 164.65625v-68.050781c0-2.5625 2.097656-4.660157 4.65625-4.660157h-15.316406c-2.566406 0-4.660156 2.097657-4.660156 4.660157v68.050781c0 2.566406 2.097656 4.664062 4.660156 4.664062h15.316406c-2.558594 0-4.65625-2.097656-4.65625-4.664062zm0 0" fill="#ea2a3d"></path><path d="m317.714844 91.945312h95.21875v77.375h-95.21875zm0 0" fill="#b7092b"></path><path d="m173.414062 133.554688c0 2.75-2.25 5-5 5h-29.285156c-2.75 0-5-2.25-5-5v-5.242188c0-2.75 2.25-5 5-5h29.285156c2.75 0 5 2.25 5 5zm0 0" fill="#fff"></path><path d="m299.203125 133.554688c0 2.75-2.25 5-5 5h-102.933594c-2.75 0-5-2.25-5-5v-5.242188c0-2.75 2.25-5 5-5h102.933594c2.75 0 5 2.25 5 5zm0 0" fill="#fff"></path><path d="m98.042969 15c-17.214844 0-31.222657 14.007812-31.222657 31.222656s14.007813 31.222656 31.222657 31.222656h303.910156v-62.445312zm0 0" fill="#ffe2b8"></path><path d="m90 46.222656c0-12.902344 6.398438-24.300781 16.1875-31.222656h-8.144531c-17.21875 0-31.222657 14.007812-31.222657 31.222656s14.003907 31.222656 31.222657 31.222656h8.144531c-9.789062-6.921874-16.1875-18.320312-16.1875-31.222656zm0 0" fill="#ffd782"></path><path d="m406.148438 91.945312h-308.105469c-25.210938 0-45.722657-20.511718-45.722657-45.722656 0-25.210937 20.511719-45.722656 45.722657-45.722656h308.105469c4.144531 0 7.5 3.359375 7.5 7.5 0 4.144531-3.355469 7.5-7.5 7.5h-308.105469c-16.941407 0-30.722657 13.78125-30.722657 30.722656s13.78125 30.722656 30.722657 30.722656h308.105469c4.144531 0 7.5 3.359376 7.5 7.5 0 4.140626-3.355469 7.5-7.5 7.5zm0 0" fill="#0f9390"></path></svg>